<svg width="25" height="25" fill="none" xmlns="http://www.w3.org/2000/svg">
  <path
    d="M6.5 10.5a6 6 0 1 1 12 0v9.69a.31.31 0 0 1-.31.31H6.81a.31.31 0 0 1-.31-.31V10.5z"
    stroke="currentColor"
  />
  <path
    d="M15 13.5h-5a.5.5 0 0 0-.5.5v3a.5.5 0 0 0 .5.5h5a.5.5 0 0 0 .5-.5v-3a.5.5 0 0 0-.5-.5z"
    stroke="currentColor"
  />
  <path
    d="M9.5 5c0-2.5 3-2.5 3-2.5s3 0 3 2.5m-6 5.5c0-3 3-3 3-3s3 0 3 3h-6z"
    stroke="currentColor"
    stroke-linejoin="round"
  />
  <path
    d="M4.5 13A1.5 1.5 0 0 1 6 11.5h.5v7H6A1.5 1.5 0 0 1 4.5 17v-4zm14-1.5h.5a1.5 1.5 0 0 1 1.5 1.5v4a1.5 1.5 0 0 1-1.5 1.5h-.5v-7z"
    stroke="currentColor"
  />
</svg>
