<svg width="25" height="25" fill="none" xmlns="http://www.w3.org/2000/svg">
  <path
    d="M9.5 7a.5.5 0 1 0 0-1 .5.5 0 0 0 0 1zM12.5 7a.5.5 0 1 0 0-1 .5.5 0 0 0 0 1zM15.5 7a.5.5 0 1 0 0-1 .5.5 0 0 0 0 1zM9.5 10a.5.5 0 1 0 0-1 .5.5 0 0 0 0 1zM12.5 10a.5.5 0 1 0 0-1 .5.5 0 0 0 0 1zM15.5 10a.5.5 0 1 0 0-1 .5.5 0 0 0 0 1zM9.5 13a.5.5 0 1 0 0-1 .5.5 0 0 0 0 1zM12.5 13a.5.5 0 1 0 0-1 .5.5 0 0 0 0 1zM15.5 13a.5.5 0 1 0 0-1 .5.5 0 0 0 0 1zM9.5 16a.5.5 0 1 0 0-1 .5.5 0 0 0 0 1zM12.5 16a.5.5 0 1 0 0-1 .5.5 0 0 0 0 1zM15.5 16a.5.5 0 1 0 0-1 .5.5 0 0 0 0 1zM9.5 19a.5.5 0 1 0 0-1 .5.5 0 0 0 0 1zM12.5 19a.5.5 0 1 0 0-1 .5.5 0 0 0 0 1zM15.5 19a.5.5 0 1 0 0-1 .5.5 0 0 0 0 1z"
    fill="currentColor"
  />
</svg>
