<svg width="25" height="25" fill="none" xmlns="http://www.w3.org/2000/svg">
  <path
    d="M19 8.5H6A1.5 1.5 0 0 0 4.5 10v9A1.5 1.5 0 0 0 6 20.5h13a1.5 1.5 0 0 0 1.5-1.5v-9A1.5 1.5 0 0 0 19 8.5zM5.5 8A1.5 1.5 0 0 1 7 6.5h11A1.5 1.5 0 0 1 19.5 8v.5h-14V8zM6.5 6A1.5 1.5 0 0 1 8 4.5h9A1.5 1.5 0 0 1 18.5 6v.5h-12V6z"
    stroke="currentColor"
  />
  <path
    d="M5 9l7.5 6.5L20 9M5 20l5.5-5.5M20 20l-5.5-5.5"
    stroke="currentColor"
    stroke-linecap="round"
    stroke-linejoin="round"
  />
</svg>
