<svg width="25" height="25" fill="none" xmlns="http://www.w3.org/2000/svg">
  <path
    d="M15.5 20.5v2h3v-2m-9-16h6-6zm-3 16v2h3v-2h-3z"
    stroke="currentColor"
    stroke-linejoin="round"
  />
  <path
    d="M9 18.5a1.5 1.5 0 1 0 0-3 1.5 1.5 0 0 0 0 3zM16 18.5a1.5 1.5 0 1 0 0-3 1.5 1.5 0 0 0 0 3z"
    stroke="currentColor"
  />
  <path d="M2.5 8.5v-2h20v2" stroke="currentColor" stroke-linejoin="round" />
  <path
    d="M4.5 6A3.5 3.5 0 0 1 8 2.5h9A3.5 3.5 0 0 1 20.5 6v14.5h-16V6z"
    stroke="currentColor"
  />
  <path d="M5 13.5h15" stroke="currentColor" stroke-linejoin="round" />
</svg>
