<svg width="15" height="15" fill="none" xmlns="http://www.w3.org/2000/svg">
  <path
    d="M3 7.5a.5.5 0 0 0-1 0h1zm10 0a.5.5 0 0 0-1 0h1zm-11 0V12h1V7.5H2zM2 12a1 1 0 0 0 1 1v-1H2zm1 1h9v-1H3v1zm9 0a1 1 0 0 0 1-1h-1v1zm.5-1h.5v-.001-.001-.001-.002-.001-.001-.002-.001-.001-.001-.002-.002-.002-.001-.002-.001-.002-.002-.002-.001-.002-.002-.002-.002-.002-.003-.002-.002-.002-.003-.002-.003-.002-.003-.003-.002-.003-.003-.003-.003-.003-.003-.003-.003-.004-.003-.003-.004-.003-.004-.003-.004-.003-.004-.004-.004-.003-.004-.004-.004-.004-.005-.004-.004-.004-.004-.005-.004-.005-.004-.005-.004-.005-.005-.004-.005-.005-.005-.005-.005-.005-.005-.005-.005-.006-.005-.005-.006-.005-.006-.005-.006-.005-.006-.006-.005-.006-.006-.006-.006-.006-.006-.006-.006-.006-.006-.006-.007-.006-.006-.007-.006-.007-.006-.007-.006-.007-.007-.006-.007-.007-.007-.007-.007-.007-.007-.007-.007-.007-.007-.007-.008-.007-.007-.008-.007-.008-.007-.008-.007-.008-.007-.008-.008-.007-.008-.008-.008-.008-.008-.008-.008-.008-.008-.008-.008-.008-.008-.009-.008-.008-.009-.008-.008-.009-.008-.009-.008-.009-.009-.008-.009-.009-.008-.01-.008-.009-.009-.009-.008-.01-.008-.01-.009-.009-.009-.009-.01-.008-.01-.009-.01-.008-.01-.01-.008-.01-.01-.009-.01-.009-.01-.01-.009-.01-.01-.009-.01-.01-.01-.009-.01-.01-.01-.01-.01-.01-.01-.01-.01-.01-.01-.01-.01-.01-.01-.01-.01-.01-.011-.01-.01-.011-.01-.01-.011-.01-.011-.01-.011-.01-.011-.01-.011-.011-.01-.011-.01-.012-.01-.011-.01-.012-.01-.011-.01-.012-.01-.011-.011-.011-.011-.011-.011-.011-.011-.011-.011-.011-.011-.011-.011-.011-.011-.012-.01-.012-.011-.011-.011-.012-.01-.012-.011-.012-.011-.011-.012-.01-.012-.012-.011-.011-.012-.011-.012-.011-.011-.012V9.8v-.012-.011-.012-.011-.012-.011-.012-.011-.012-.011-.012-.012-.011-.012-.011-.012-.012-.011-.012-.012-.011-.012-.012-.011-.012-.012-.011-.012-.012-.011-.012-.012-.012-.011-.012-.012-.012-.011-.012-.012-.012-.011-.012-.012-.012-.011-.012-.012-.012-.012-.011-.012-.012-.012-.012-.012-.011-.012-.012-.012-.012-.011-.012-.012-.012-.012-.012-.011-.012-.012-.012-.012-.011-.012-.012-.012-.012-.012-.011-.012-.012-.012-.012-.011-.012-.012-.012-.012-.011-.012-.012-.012-.011-.012-.012-.012-.011-.012-.012-.012-.011-.012-.012-.011-.012-.012-.012-.011-.012-.012-.011-.012-.011-.012-.012-.011-.012-.012-.011-.012-.011-.012-.011-.012-.011-.012-.012-.011-.012-.011-.011-.012-.011-.012-.011-.012-.011-.011-.012-.011-.012-.01-.012-.012-.01-.012-.011-.012-.011-.011-.011-.012-.01-.012-.011-.011-.011-.012-.01-.012-.01-.012-.011-.011-.011-.011-.011-.01-.012-.01-.012-.01-.011-.011-.011-.011-.01-.012-.01-.011-.01V7.7v-.011-.01-.011-.011-.01-.011-.01-.011-.01-.011-.01-.011-.01-.011-.01-.011-.01-.01V7.5h-1V12h.5z"
    fill="currentColor"
  />
  <path d="M7.5 2.5v7" stroke="currentColor" stroke-linecap="round" />
  <path
    d="M5.5 6.5l2 3 2-3"
    stroke="currentColor"
    stroke-linecap="round"
    stroke-linejoin="round"
  />
</svg>
